{"title":"Senna.Week.2014.SkyF1HD.720p","uid":10124937,"size":9155343581,"categoryP":"video","categoryS":"hd___tv_shows","magnet":"?xt=urn:btih:f05e8724037b91d2c3bb08525969f4f55d60f7a7&amp;dn=Senna.Week.2014.SkyF1HD.720p&amp;tr=udp%3A%2F%2Ftracker.openbittorrent.com%3A80&amp;tr=udp%3A%2F%2Fopen.demonii.com%3A1337&amp;tr=udp%3A%2F%2Ftracker.coppersurfer.tk%3A6969&amp;tr=udp%3A%2F%2Fexodus.desync.com%3A6969","seeders":0,"leechers":1,"uploader":"smcgill1969","files":-1,"time":1399751444,"description":"SkyF1's tribute week, to mark the 20th Aanniversary of the death of the awesome Ayrton Senna. \n\nThe odd thing is, I've found a whole new respect for Alain Prost watching these!\n\nI've taken a bit more time with these than I usually do by slightly increasing the x264 quality settings &amp; removing the adverts, enjoy...\n\n01.Senna.The.Last.Teammate.720p.mp4\n02.Senna.Journalists.Special.720p.mp4\n03.Echoes.Of.The.Past.Ayrton.Senna.720p.mp4\n04.Teds.Senna.Notebook.720p.mp4\n05.Remembering.Ratzenberger.720p.mp4\n06.Senna.A.Winning.Partnership.720p.mp4\n07.The.F1.Show.Senna.Tribute.720p.mp4\n08.Prost.On.Senna.720p.mp4\n09.Legends.Of.F1.Ayrton.Senna.720p.mp4\n\n~~~~~~~~~\nideo\nID                                       : 1\nFormat                                   : AVC\nFormat/Info                              : Advanced Video Codec\nFormat profile                           : &lt;a class=&quot;__cf_email__&quot; href=&quot;/cdn-cgi/l/email-protection&quot; data-cfemail=&quot;226a4b454a626e110c13&quot;&gt;[email&amp;#160;protected]&lt;/a&gt;&lt;script cf-hash='f9e31' type=&quot;text/javascript&quot;&gt;\n/* &lt;![CDATA[ */!function(){try{var t=&quot;currentScript&quot;in document?document.currentScript:function(){for(var t=document.getElementsByTagName(&quot;script&quot;),e=t.length;e--;)if(t[e].getAttribute(&quot;cf-hash&quot;))return t[e]}();if(t&amp;&amp;t.previousSibling){var e,r,n,i,c=t.previousSibling,a=c.getAttribute(&quot;data-cfemail&quot;);if(a){for(e=&quot;&quot;,r=parseInt(a.substr(0,2),16),n=2;a.length-n;n+=2)i=parseInt(a.substr(n,2),16)^r,e+=String.fromCharCode(i);e=document.createTextNode(e),c.parentNode.replaceChild(e,c)}}}catch(u){}}();/* ]]&gt; */&lt;/script&gt;\nFormat settings, CABAC                   : Yes\nFormat settings, ReFrames                : 5 frames\nCodec ID                                 : avc1\nCodec ID/Info                            : Advanced Video Coding\nDuration                                 : 43mn 33s\nBit rate                                 : 4 069 Kbps\nWidth                                    : 1 280 pixels\nHeight                                   : 720 pixels\nDisplay aspect ratio                     : 16:9\nFrame rate mode                          : Constant\nFrame rate                               : 25.000 fps\nColor space                              : YUV\nChroma subsampling                       : 4:2:0\nBit depth                                : 8 bits\nScan type                                : Progressive\nBits/(Pixel*Frame)                       : 0.177\nStream size                              : 1.24 GiB (94%)\nWriting library                          : x264 core 130 r2273 b3065e6\nEncoding settings                        : cabac=1 / ref=5 / deblock=1:0:0 / analyse=0x3:0x113 / me=umh / subme=8 / psy=1 / psy_rd=1.00:0.00 / mixed_ref=1 / me_range=16 / chroma_me=1 / trellis=1 / 8x8dct=1 / cqm=0 / deadzone=21,11 / fast_pskip=1 / chroma_qp_offset=-2 / threads=12 / lookahead_threads=2 / sliced_threads=0 / nr=0 / decimate=1 / interlaced=0 / bluray_compat=0 / constrained_intra=0 / bframes=3 / b_pyramid=2 / b_adapt=2 / b_bias=0 / direct=3 / weightb=1 / open_gop=0 / weightp=2 / keyint=250 / keyint_min=25 / scenecut=40 / intra_refresh=0 / rc_lookahead=50 / rc=crf / mbtree=1 / crf=18.0 / qcomp=0.60 / qpmin=0 / qpmax=69 / qpstep=4 / vbv_maxrate=17500 / vbv_bufsize=17500 / crf_max=0.0 / nal_hrd=none / ip_ratio=1.40 / aq=1:1.00\nEncoded date                             : UTC 2014-05-05 12:37:10\nTagged date                              : UTC 2014-05-05 13:34:53\nColor primaries                          : BT.709\nTransfer characteristics                 : BT.709\nMatrix coefficients                      : BT.709\n\nAudio\nID                                       : 2\nFormat                                   : AAC\nFormat/Info                              : Advanced Audio Codec\nFormat profile                           : LC\nCodec ID                                 : 40\nDuration                                 : 43mn 33s\nBit rate mode                            : Variable\nBit rate                                 : 272 Kbps\nMaximum bit rate                         : 359 Kbps\nChannel(s)                               : 2 channels\nChannel positions                        : Front: L R\nSampling rate                            : 48.0 KHz\nCompression mode                         : Lossy\nStream size                              : 84.7 MiB (6%)\nEncoded date                             : UTC 2014-05-05 12:37:10\nTagged date                              : UTC 2014-05-05 13:34:52","torrent":{"xt":"urn:btih:f05e8724037b91d2c3bb08525969f4f55d60f7a7","amp;dn":"Senna.Week.2014.SkyF1HD.720p","amp;tr":["udp%3A%2F%2Ftracker.openbittorrent.com%3A80","udp%3A%2F%2Fopen.demonii.com%3A1337","udp%3A%2F%2Ftracker.coppersurfer.tk%3A6969","udp%3A%2F%2Fexodus.desync.com%3A6969"],"infoHash":"f05e8724037b91d2c3bb08525969f4f55d60f7a7","infoHashBuffer":{"type":"Buffer","data":[240,94,135,36,3,123,145,210,195,187,8,82,89,105,244,245,93,96,247,167]},"announce":[],"urlList":[]}}